{"scene":0,"asset":{"generator":"ImageToStl.com","version":"2.0"},"scenes":[{"name":"Scene","nodes":[0]}],"nodes":[{"name":"Node0","children":[1,2,3,4]},{"name":"Node1","mesh":0},{"name":"Node2","mesh":1},{"name":"Node3","mesh":2},{"name":"Node4","mesh":3}],"materials":[{"name":"Material","pbrMetallicRoughness":{"baseColorFactor":[0.8,0.8,0.8,1.0],"metallicFactor":0.5,"roughnessFactor":0.64},"emissiveFactor":[0.0,0.0,0.0],"doubleSided":true},{"name":"Glasses","pbrMetallicRoughness":{"baseColorFactor":[0.8,0.8,0.8,1.0],"metallicFactor":0.5,"roughnessFactor":0.75},"emissiveFactor":[0.0,0.0,0.0],"doubleSided":true},{"name":"x1","pbrMetallicRoughness":{"baseColorFactor":[0.0,0.0,0.0,1.0],"metallicFactor":0.0,"roughnessFactor":1.0},"doubleSided":true}],"meshes":[{"name":"Mesh0","primitives":[{"indices":3,"material":0,"attributes":{"POSITION":0,"NORMAL":1,"TEXCOORD_0":2}}]},{"name":"Mesh0","primitives":[{"indices":7,"material":1,"attributes":{"POSITION":4,"NORMAL":5,"TEXCOORD_0":6}}]},{"name":"Mesh0","primitives":[{"indices":11,"material":2,"attributes":{"POSITION":8,"NORMAL":9,"TEXCOORD_0":10}}]},{"name":"Mesh0","primitives":[{"indices":15,"material":2,"attributes":{"POSITION":12,"NORMAL":13,"TEXCOORD_0":14}}]}],"accessors":[{"bufferView":0,"componentType":5126,"count":2752,"type":"VEC3","min":[-0.114583164,2.671733,2.4133022],"max":[0.012596935,2.6844804,2.4584746]},{"bufferView":1,"componentType":5126,"count":2752,"type":"VEC3"},{"bufferView":2,"componentType":5126,"count":2752,"type":"VEC2"},{"bufferView":3,"componentType":5123,"count":24408,"type":"SCALAR"},{"bufferView":4,"componentType":5126,"count":17523,"type":"VEC3","min":[-0.12906198,2.6676369,2.4113255],"max":[0.027075745,2.8102849,2.4606328]},{"bufferView":5,"componentType":5126,"count":17523,"type":"VEC3"},{"bufferView":6,"componentType":5126,"count":17523,"type":"VEC2"},{"bufferView":7,"componentType":5123,"count":243972,"type":"SCALAR"},{"bufferView":8,"componentType":5126,"count":954,"type":"VEC3","min":[-0.061024018,2.674466,2.429034],"max":[-0.040962204,2.682221,2.4377575]},{"bufferView":9,"componentType":5126,"count":954,"type":"VEC3"},{"bufferView":10,"componentType":5126,"count":954,"type":"VEC2"},{"bufferView":11,"componentType":5123,"count":13824,"type":"SCALAR"},{"bufferView":12,"componentType":5126,"count":4,"type":"VEC3","min":[-1.0417593,1.671565,2.4108098],"max":[0.95824075,3.671565,2.4108098]},{"bufferView":13,"componentType":5126,"count":4,"type":"VEC3"},{"bufferView":14,"componentType":5126,"count":4,"type":"VEC2"},{"bufferView":15,"componentType":5123,"count":18,"type":"SCALAR"}],"bufferViews":[{"target":34962,"buffer":0,"byteLength":33024,"byteOffset":0},{"target":34962,"buffer":0,"byteLength":33024,"byteOffset":33024},{"target":34962,"buffer":0,"byteLength":22016,"byteOffset":66048},{"target":34963,"buffer":0,"byteLength":48816,"byteOffset":88064},{"target":34962,"buffer":0,"byteLength":210276,"byteOffset":136880},{"target":34962,"buffer":0,"byteLength":210276,"byteOffset":347156},{"target":34962,"buffer":0,"byteLength":140184,"byteOffset":557432},{"target":34963,"buffer":0,"byteLength":487944,"byteOffset":697616},{"target":34962,"buffer":0,"byteLength":11448,"byteOffset":1185560},{"target":34962,"buffer":0,"byteLength":11448,"byteOffset":1197008},{"target":34962,"buffer":0,"byteLength":7632,"byteOffset":1208456},{"target":34963,"buffer":0,"byteLength":27648,"byteOffset":1216088},{"target":34962,"buffer":0,"byteLength":48,"byteOffset":1243736},{"target":34962,"buffer":0,"byteLength":48,"byteOffset":1243784},{"target":34962,"buffer":0,"byteLength":32,"byteOffset":1243832},{"target":34963,"buffer":0,"byteLength":36,"byteOffset":1243864}],"buffers":[{"byteLength":1243900,"uri":"data:application/octet-stream;base64,"}]}